<svg xmlns="http://www.w3.org/2000/svg" xmlns:xlink="http://www.w3.org/1999/xlink" data-name="Calque 1" width="1200" height="1200" viewBox="0 0 400 400">
  <defs>
    <linearGradient id="Dégradé_sans_nom" data-name="Dégradé sans nom" x1="260" y1="30" x2="260" y2="250" gradientUnits="userSpaceOnUse">
      <stop offset="0" stop-color="#fff"/>
      <stop offset="1" stop-color="#000"/>
    </linearGradient>
    <linearGradient id="Dégradé_sans_nom_2" data-name="Dégradé sans nom 2" x1="182.259" y1="62.25" x2="337.751" y2="217.741" gradientUnits="userSpaceOnUse">
      <stop offset="0" stop-color="#fff"/>
      <stop offset="1" stop-color="#000"/>
    </linearGradient>
    <linearGradient id="Dégradé_sans_nom_50" data-name="Dégradé sans nom 50" x1="140" y1="150" x2="140" y2="370" gradientUnits="userSpaceOnUse">
      <stop offset="0" stop-color="#fff"/>
      <stop offset="1" stop-color="#000"/>
    </linearGradient>
    <linearGradient id="Dégradé_sans_nom-2" data-name="Dégradé sans nom" x1="62.259" y1="182.25" x2="217.751" y2="337.741" xlink:href="#Dégradé_sans_nom"/>
  </defs>
  <g>
    <path d="M370,140c0,60.751-49.249,110-110,110s-110-49.249-110-110,49.249-110,110-110,110,49.249,110,110Z" fill="#b31942" stroke-width="0"/>
    <path d="M158.436,182.308h203.127c-2.469,5.92-5.436,11.58-8.857,16.923h-185.414c-3.421-5.343-6.388-11.003-8.857-16.923ZM152.949,165.385h214.102c1.298-5.494,2.189-11.145,2.629-16.923h-219.359c.44,5.778,1.331,11.429,2.629,16.923ZM201.362,233.077h117.276c7.587-4.79,14.549-10.479,20.734-16.923h-158.743c6.184,6.444,13.146,12.133,20.734,16.923ZM180.629,63.846h158.743c-6.184-6.444-13.146-12.133-20.734-16.923h-117.276c-7.587,4.79-14.549,10.479-20.734,16.923ZM150.321,131.538h219.359c-.44-5.778-1.331-11.429-2.629-16.923h-214.102c-1.298,5.494-2.189,11.145-2.629,16.923ZM158.436,97.692h203.127c-2.469-5.92-5.436-11.58-8.857-16.923h-185.414c-3.421,5.343-6.388,11.003-8.857,16.923Z" fill="#fff" stroke-width="0"/>
    <path d="M150,140c0,2.847.108,5.669.321,8.462h109.679V30c-60.751,0-110,49.249-110,110Z" fill="#0a3161" stroke-width="0"/>
    <path d="M246.077,35.653l1.555,4.74h5.011l-4.048,2.962,1.555,4.764-4.073-2.962-4.048,2.962,1.558-4.764-4.051-2.962h5.011l1.531-4.74ZM220.75,43.355l4.024-2.962h-4.987l-.815-2.419c-.565.222-1.16.444-1.728.691l-.565,1.728h-3.286c-.37.173-.716.346-1.061.494l3.382,2.469-1.16,3.579-.37,1.185,1.605-1.185,2.444-1.777,2.444,1.777,1.605,1.185-.37-1.185-1.16-3.579ZM244.547,64.091h-5.011l4.051,2.938-1.558,4.764,4.048-2.938,4.073,2.938-1.555-4.764,4.048-2.938h-5.011l-1.555-4.764-1.531,4.764ZM216.679,64.091h-5.014l4.073,2.938-1.555,4.764,4.048-2.938,4.048,2.938-1.555-4.764,4.048-2.938h-4.987l-1.555-4.764-1.553,4.764ZM188.831,64.091h-5.011l4.048,2.938-1.553,4.764,4.071-2.938,4.048,2.938-1.555-4.764,4.051-2.938h-5.014l-1.531-4.764-1.555,4.764ZM244.547,87.79h-5.011l4.051,2.938-1.558,4.764,4.048-2.938,4.073,2.938-1.555-4.764,4.048-2.938h-5.011l-1.555-4.764-1.531,4.764ZM216.679,87.79h-5.014l4.073,2.938-1.555,4.764,4.048-2.938,4.048,2.938-1.555-4.764,4.048-2.938h-4.987l-1.555-4.764-1.553,4.764ZM188.831,87.79h-5.011l4.048,2.938-1.553,4.764,4.071-2.938,4.048,2.938-1.555-4.764,4.051-2.938h-5.014l-1.531-4.764-1.555,4.764ZM169.057,87.79h-4.987l-.321-.963c-1.38,2.469-2.666,5.036-3.849,7.628l2.614-1.901,4.051,2.938-1.533-4.764,4.024-2.938ZM244.547,111.463h-5.011l4.051,2.962-1.558,4.74,4.048-2.938,4.073,2.938-1.555-4.74,4.048-2.962h-5.011l-1.555-4.764-1.531,4.764ZM216.679,111.463h-5.014l4.073,2.962-1.555,4.74,4.048-2.938,4.048,2.938-1.555-4.74,4.048-2.962h-4.987l-1.555-4.764-1.553,4.764ZM188.831,111.463h-5.011l4.048,2.962-1.553,4.74,4.071-2.938,4.048,2.938-1.555-4.74,4.051-2.962h-5.014l-1.531-4.764-1.555,4.764ZM160.961,111.463h-4.987l4.048,2.962-1.555,4.74,4.048-2.938,4.051,2.938-1.558-4.74,4.073-2.962h-5.011l-1.555-4.764-1.555,4.764ZM244.547,135.162h-5.011l4.051,2.938-1.558,4.764,4.048-2.938,4.073,2.938-1.555-4.764,4.048-2.938h-5.011l-1.555-4.764-1.531,4.764ZM216.679,135.162h-5.014l4.073,2.938-1.555,4.764,4.048-2.938,4.048,2.938-1.555-4.764,4.048-2.938h-4.987l-1.555-4.764-1.553,4.764ZM188.831,135.162h-5.011l4.048,2.938-1.553,4.764,4.071-2.938,4.048,2.938-1.555-4.764,4.051-2.938h-5.014l-1.531-4.764-1.555,4.764ZM160.961,135.162h-4.987l4.048,2.938-1.555,4.764,4.048-2.938,4.051,2.938-1.558-4.764,4.073-2.938h-5.011l-1.555-4.764-1.555,4.764ZM230.624,123.312h-5.011l4.048,2.938-1.555,4.764,4.048-2.938,4.048,2.938-1.531-4.764,4.048-2.938h-5.009l-1.558-4.764-1.531,4.764ZM202.754,123.312h-5.011l4.048,2.938-1.531,4.764,4.048-2.938,4.048,2.938-1.553-4.764,4.046-2.938h-5.011l-1.531-4.764-1.555,4.764ZM174.908,123.312h-5.011l4.048,2.938-1.555,4.764,4.051-2.938,4.046,2.938-1.531-4.764,4.048-2.938h-5.011l-1.553-4.764-1.533,4.764ZM155.135,123.312h-3.873c-.299,2.049-.57,4.098-.741,6.171l2.121,1.531-1.555-4.764,4.048-2.938ZM230.624,99.639h-5.011l4.048,2.938-1.555,4.764,4.048-2.962,4.048,2.962-1.531-4.764,4.048-2.938h-5.009l-1.558-4.764-1.531,4.764ZM202.754,99.639h-5.011l4.048,2.938-1.531,4.764,4.048-2.962,4.048,2.962-1.553-4.764,4.046-2.938h-5.011l-1.531-4.764-1.555,4.764ZM174.908,99.639h-5.011l4.048,2.938-1.555,4.764,4.051-2.962,4.046,2.962-1.531-4.764,4.048-2.938h-5.011l-1.553-4.764-1.533,4.764ZM230.624,75.94h-5.011l4.048,2.938-1.555,4.764,4.048-2.938,4.048,2.938-1.531-4.764,4.048-2.938h-5.009l-1.558-4.764-1.531,4.764ZM202.754,75.94h-5.011l4.048,2.938-1.531,4.764,4.048-2.938,4.048,2.938-1.553-4.764,4.046-2.938h-5.011l-1.531-4.764-1.555,4.764ZM178.956,78.878l4.048-2.938h-5.011l-1.553-4.764-1.558,4.764h-4.221c-.099.123-.197.247-.272.37l3.555,2.567-.617,1.901-.938,2.864,3.925-2.864.126-.074.121.074,3.95,2.864-.938-2.864-.617-1.901ZM230.624,52.242h-5.011l4.048,2.962-1.555,4.74,4.048-2.938,4.048,2.938-1.531-4.74,4.048-2.962h-5.009l-1.558-4.764-1.531,4.764ZM202.754,52.242h-5.011l4.048,2.962-1.531,4.74,4.048-2.938,4.048,2.938-1.553-4.74,4.046-2.962h-5.011l-1.531-4.764-1.555,4.764Z" fill="#fff" stroke-width="0"/>
    <path d="M260,250c-60.642,0-110-49.358-110-110s49.358-110,110-110,110,49.333,110,110-49.331,110-110,110Z" fill="url(#Dégradé_sans_nom)" opacity=".15" stroke-width="0"/>
    <path d="M260,36c57.346,0,104,46.654,104,104s-46.654,104-104,104-104-46.654-104-104,46.654-104,104-104M260,30c-60.642,0-110,49.333-110,110s49.358,110,110,110,110-49.358,110-110-49.331-110-110-110h0Z" fill="url(#Dégradé_sans_nom_2)" opacity=".15" stroke-width="0"/>
  </g>
  <path d="M265,260c0,69.036-55.964,125-125,125S15,329.036,15,260s55.964-125,125-125,125,55.964,125,125Z" fill="#fff" stroke-width="0"/>
  <g>
    <path d="M140,370c-60.642,0-110-49.358-110-110s49.358-110,110-110,110,49.333,110,110-49.331,110-110,110Z" fill="#039" stroke-width="0"/>
    <path d="M143.082,194.988h9.973l-8.068,5.863,3.082,9.485-8.068-5.863-8.068,5.863,3.082-9.485-8.068-5.863h9.973l3.082-9.485,3.082,9.485ZM143.082,319.149l-3.082-9.485-3.082,9.485h-9.973l8.068,5.863-3.082,9.485,8.068-5.863,8.068,5.863-3.082-9.485,8.068-5.863h-9.973ZM78.055,266.554l8.068,5.862-3.082-9.484,8.068-5.862h-9.972l-3.082-9.485-3.082,9.485h-9.973l8.068,5.862-3.082,9.484,8.069-5.862ZM107.631,194.176l-3.082,9.485h-9.973l8.069,5.862-3.082,9.484,8.068-5.862,8.068,5.862-3.082-9.484,8.068-5.862h-9.972l-3.082-9.485ZM83.935,217.871l-3.082,9.485h-9.972l8.068,5.862-3.082,9.484,8.068-5.862,8.068,5.862-3.082-9.484,8.068-5.862h-9.972l-3.082-9.485ZM87.017,286.781l-3.082-9.485-3.082,9.485h-9.973l8.068,5.863-3.082,9.485,8.068-5.863,8.068,5.863-3.082-9.485,8.068-5.863h-9.973ZM110.713,310.478l-3.082-9.485-3.082,9.485h-9.973l8.069,5.862-3.082,9.484,8.068-5.862,8.068,5.862-3.082-9.484,8.068-5.862h-9.972ZM215,257.07h-9.973l-3.082-9.485-3.082,9.485h-9.972l8.068,5.862-3.082,9.484,8.069-5.862,8.068,5.862-3.082-9.484,8.068-5.862ZM172.369,194.176l-3.082,9.485h-9.972l8.068,5.862-3.082,9.484,8.068-5.862,8.068,5.862-3.082-9.484,8.069-5.862h-9.973l-3.082-9.485ZM191.079,233.219l-3.082,9.484,8.068-5.862,8.068,5.862-3.082-9.484,8.068-5.862h-9.972l-3.082-9.485-3.082,9.485h-9.972l8.068,5.862ZM199.147,286.781l-3.082-9.485-3.082,9.485h-9.973l8.068,5.863-3.082,9.485,8.068-5.863,8.068,5.863-3.082-9.485,8.068-5.863h-9.973ZM175.451,310.478l-3.082-9.485-3.082,9.485h-9.972l8.068,5.862-3.082,9.484,8.068-5.862,8.068,5.862-3.082-9.484,8.069-5.862h-9.973Z" fill="#fc0" stroke-width="0"/>
    <path d="M140,370c-60.642,0-110-49.358-110-110s49.358-110,110-110,110,49.333,110,110-49.331,110-110,110Z" fill="url(#Dégradé_sans_nom_50)" opacity=".15" stroke-width="0"/>
    <path d="M140,156c57.346,0,104,46.654,104,104s-46.654,104-104,104-104-46.654-104-104,46.654-104,104-104M140,150c-60.642,0-110,49.333-110,110s49.358,110,110,110,110-49.358,110-110-49.331-110-110-110h0Z" fill="url(#Dégradé_sans_nom-2)" opacity=".15" stroke-width="0"/>
  </g>
<title>spot eurusd</title></svg>
